<svg width="15" height="12" viewBox="0 0 15 12" fill="none" xmlns="http://www.w3.org/2000/svg">
<path d="M0.313121 0.912773C2.37181 2.65626 5.98418 5.72358 7.04589 6.67998C7.18842 6.80906 7.34129 6.87469 7.5 6.87469C7.65837 6.87469 7.81098 6.80968 7.95319 6.68121C9.01582 5.72388 12.6282 2.65626 14.6869 0.912773C14.8151 0.804433 14.8346 0.614004 14.7308 0.481553C14.491 0.175488 14.1333 0 13.75 0H1.25001C0.866715 0 0.509029 0.175488 0.269176 0.481582C0.165406 0.614004 0.184947 0.804433 0.313121 0.912773Z" fill="#E8C200"/>
<path d="M14.8187 1.85726C14.708 1.8057 14.5777 1.82368 14.4855 1.90243C12.2024 3.83784 9.28863 6.31865 8.37188 7.14473C7.85733 7.6092 7.14322 7.6092 6.62748 7.14411C5.65031 6.26369 2.3782 3.48201 0.514512 1.90241C0.421729 1.82366 0.291123 1.80628 0.18126 1.85723C0.0708105 1.90853 0 2.01901 0 2.14076V9.99965C0 10.6891 0.560596 11.2497 1.25001 11.2497H13.75C14.4394 11.2497 15 10.6891 15 9.99965V2.14076C15 2.01901 14.9292 1.90824 14.8187 1.85726Z" fill="#E8C200"/>
</svg>
