<svg width="15" height="15" viewBox="0 0 15 15" fill="none" xmlns="http://www.w3.org/2000/svg">
<path d="M13.7964 9.84578C12.878 9.84578 11.9763 9.70215 11.1218 9.41977C10.7031 9.27695 10.1884 9.40797 9.93281 9.67043L8.24621 10.9436C6.29023 9.89953 5.08539 8.69508 4.05556 6.75379L5.29129 5.11113C5.61234 4.79051 5.7275 4.32215 5.58953 3.8827C5.30594 3.02371 5.16187 2.12242 5.16187 1.20367C5.16191 0.539961 4.62196 0 3.95826 0L1.20356 0C0.539961 0 -3.91006e-05 0.539961 -3.91006e-05 1.20363C-3.91006e-05 8.81105 6.18894 15 13.7964 15C14.46 15 15 14.46 15 13.7964V11.0494C15 10.3857 14.46 9.84578 13.7964 9.84578Z" fill="#E8C200"/>
</svg>
